<?xml version="1.0" encoding="utf-8"?>
<!-- Generator: Adobe Illustrator 19.0.0, SVG Export Plug-In . SVG Version: 6.00 Build 0)  -->
<svg version="1.1" id="Layer_1" xmlns="http://www.w3.org/2000/svg" xmlns:xlink="http://www.w3.org/1999/xlink" x="0px" y="0px"
	 viewBox="0 0 187.3 187.3" style="enable-background:new 0 0 187.3 187.3;" xml:space="preserve">
<style type="text/css">
	.st0{fill:#70C2E9;}
	.st1{fill:none;stroke:#70C2E9;stroke-width:3;}
</style>
<path id="XMLID_2_" class="st0" d="M131.1,76.4c0,0.8,0,1.5,0,2.3c0,23.2-17.4,50-49.1,50c-9.8,0-18.8-2.9-26.5-7.9
	c1.3,0.2,2.7,0.2,4.1,0.2c8.1,0,15.5-2.8,21.4-7.5c-7.6-0.1-13.9-5.2-16.1-12.2c1.1,0.2,2.1,0.3,3.3,0.3c1.6,0,3.1-0.2,4.5-0.6
	c-7.9-1.6-13.8-8.7-13.8-17.2c0-0.1,0-0.1,0-0.2c2.3,1.3,5,2.1,7.8,2.2c-4.6-3.2-7.7-8.5-7.7-14.6c0-3.2,0.8-6.2,2.3-8.8
	C69.9,72.9,82.6,79.9,97,80.6c-0.3-1.3-0.4-2.6-0.4-4c0-9.7,7.7-17.6,17.3-17.6c5,0,9.5,2.1,12.6,5.5c3.9-0.8,7.6-2.3,11-4.3
	c-1.3,4.1-4,7.5-7.6,9.7c3.5-0.4,6.8-1.4,9.9-2.8C137.4,70.8,134.4,73.9,131.1,76.4"/>
<rect id="XMLID_1_" x="5.4" y="5.5" class="st1" width="176.6" height="176.6"/>
</svg>
